<svg data-name="Layer 2" viewBox="0 0 24 24" xmlns="http://www.w3.org/2000/svg"><path d="M21.15 3.35 19 5.5h-4l-2.15-2.15a.5.5 0 0 0-.85.36V9a5 5 0 0 0 10 0V3.71a.5.5 0 0 0-.85-.36ZM15 10a1 1 0 1 1 1-1 1 1 0 0 1-1 1Zm4 0a1 1 0 1 1 1-1 1 1 0 0 1-1 1Z" fill="#ff9a8d" class="fill-333333"></path><path d="M18.4 22H17a1 1 0 0 1-.84-.46l-2.51-3.91-.05-.09c-.27-.55-1.37-.95-2.6-.95s-2.33.4-2.6.95l-2 3.92a1 1 0 0 1-.9.54H4.11a2 2 0 0 1-1.49-.66 2 2 0 0 1-.5-1.54L3 11l-.72-5.8a2.85 2.85 0 0 1 5.65-.78l.37 2.42A1 1 0 0 1 7.45 8a1 1 0 0 1-1.14-.84l-.37-2.43A.84.84 0 0 0 5.1 4a.82.82 0 0 0-.64.29.85.85 0 0 0-.21.71L5 10.88a1.55 1.55 0 0 1 0 .22L4.11 20h.78l1.72-3.36c.76-1.51 2.76-2.05 4.39-2.05s3.59.53 4.36 2L17.55 20h.85l-.4-3.9a1 1 0 0 1 2-.2l.39 3.9a2 2 0 0 1-.51 1.54 2 2 0 0 1-1.48.66Z" fill="#ff9a8d" class="fill-333333"></path><path d="M12.5 11a.93.93 0 0 1-.5-.14 8.67 8.67 0 0 0-4.78-.1 1 1 0 1 1-.44-2c2.34-.52 5-.37 6.23.34a1 1 0 0 1-.51 1.9Z" fill="#ff9a8d" class="fill-333333"></path></svg>